<svg version="1" xmlns="http://www.w3.org/2000/svg" width="400" height="400" viewBox="0 0 300.000000 300.000000"><path d="M76 158.5V276h40v-97.1l12.7.3 12.7.3 29.5 48.2 29.6 48.3h22.8c12.6 0 22.7-.4 22.5-.8-.1-.5-15.1-23.4-33.1-51.1-18.1-27.6-32.7-50.4-32.5-50.5.1-.1 3.5-1.4 7.3-2.9 11-4.2 19.4-9.6 27.6-17.7 13.3-13.2 18.6-27.8 17.6-48.5-.3-6.1-1.3-13.5-2.2-16.5-8.1-26.8-31.1-42.1-68.9-45.9-6-.6-27.7-1.1-48.3-1.1H76v117.5zM154.9 71c13.6 1.5 20.6 4.4 27.2 10.9 7.6 7.7 9.4 13 9.3 27.6-.1 20.8-7.1 31.5-24.5 37.6-5.7 2-8.8 2.3-28.6 2.7l-22.3.4V70h15.3c8.3 0 19 .5 23.6 1z"/></svg>